<svg xmlns="http://www.w3.org/2000/svg" xmlns:xlink="http://www.w3.org/1999/xlink" width="23" height="14" viewBox="0 0 23 14"><defs><path id="bu4va" d="M230.289 1120.692l5.024 4.295h-18.315a.998.998 0 0 0-.998.995c0 .55.448.996.998.996h18.315l-5.024 4.3a.988.988 0 0 0 0 1.405.988.988 0 0 0 1.401 0l6.958-5.947c.006-.008.019-.014.025-.02.013-.006.026-.006.039-.013.013-.012.006-.025.013-.038a.994.994 0 0 0 .275-.676.994.994 0 0 0-.275-.677c-.007-.012-.007-.025-.013-.038-.013-.013-.026-.013-.039-.019-.006-.007-.019-.013-.032-.02l-6.95-5.946a.986.986 0 0 0-1.402 0 .987.987 0 0 0 0 1.403z"/></defs><g><g transform="translate(-216 -1119)"><use xlink:href="#bu4va"/></g></g></svg>