<svg xmlns="http://www.w3.org/2000/svg" width="35" height="34" viewBox="0 0 35 34">
    <defs>
        <clipPath id="inlia">
            <path fill="#fff" d="M17.734 0c9.467 0 17.141 7.611 17.141 17s-7.674 17-17.14 17C8.267 34 .593 26.389.593 17S8.268 0 17.734 0z" />
        </clipPath>
    </defs>
    <g>
        <g opacity="1">
            <g opacity="1">
                <path fill="none" stroke="#fff" stroke-miterlimit="50" stroke-width="4" d="M17.734 0c9.467 0 17.141 7.611 17.141 17s-7.674 17-17.14 17C8.267 34 .593 26.389.593 17S8.268 0 17.734 0z" clip-path="url(&quot;#inlia&quot;)" />
            </g>
            <g opacity="1">
                <path fill="#fff" d="M17.63 10.273c-2.193 0-2.453.008-3.32.047-.8.036-1.235.168-1.524.279a2.547 2.547 0 0 0-.945.607 2.517 2.517 0 0 0-.614.932c-.113.286-.247.716-.283 1.506-.04.855-.048 1.112-.048 3.277s.008 2.422.048 3.277c.036.791.17 1.22.283 1.506.149.379.327.65.614.932.288.284.561.46.945.607.29.111.724.243 1.525.28.866.039 1.126.046 3.319.046s2.453-.007 3.32-.046c.8-.037 1.235-.169 1.524-.28.384-.147.657-.323.945-.607.287-.283.465-.553.614-.932.113-.285.246-.715.283-1.506.04-.855.048-1.112.048-3.277s-.009-2.422-.048-3.277c-.037-.79-.17-1.22-.283-1.506a2.516 2.516 0 0 0-.614-.932 2.549 2.549 0 0 0-.945-.607c-.29-.11-.724-.243-1.525-.28-.866-.038-1.126-.046-3.319-.046 0 0 2.193 0 0 0zm0-1.461c2.23 0 2.51.009 3.386.048.875.04 1.472.177 1.994.378.54.206.999.484 1.455.934.457.451.738.903.948 1.437.203.516.342 1.106.381 1.968.04.866.05 1.141.05 3.344s-.01 2.48-.05 3.344c-.04.863-.178 1.453-.381 1.968-.21.534-.491.986-.948 1.437a4.04 4.04 0 0 1-1.455.935c-.522.2-1.12.338-1.994.377-.876.04-1.155.049-3.386.049-2.23 0-2.51-.009-3.387-.049-.874-.04-1.471-.176-1.993-.377a4.038 4.038 0 0 1-1.455-.935 3.97 3.97 0 0 1-.948-1.437c-.203-.515-.342-1.105-.381-1.968-.04-.865-.05-1.141-.05-3.344s.01-2.478.05-3.344c.04-.862.178-1.452.381-1.968.21-.534.491-.986.948-1.437.456-.45.914-.728 1.455-.934.522-.201 1.12-.338 1.993-.378.877-.04 1.156-.048 3.387-.048 0 0-2.23 0 0 0zm0 3.944c2.33 0 4.218 1.865 4.218 4.165s-1.889 4.165-4.218 4.165c-2.33 0-4.218-1.865-4.218-4.165s1.888-4.165 4.218-4.165c0 0-2.33 0 0 0zm0 6.868c1.512 0 2.738-1.21 2.738-2.703 0-1.492-1.226-2.703-2.738-2.703s-2.738 1.21-2.738 2.703c0 1.493 1.226 2.703 2.738 2.703 0 0-1.512 0 0 0zM23 12.592a.98.98 0 0 1-.985.973.98.98 0 0 1-.986-.973.98.98 0 0 1 .986-.973.98.98 0 0 1 .985.973" />
            </g>
        </g>
    </g>
</svg>