<svg xmlns="http://www.w3.org/2000/svg" width="35" height="34" viewBox="0 0 35 34">
    <defs>
        <clipPath id="pr1fa">
            <path fill="#fff" d="M17.625 0c9.44 0 17.094 7.611 17.094 17s-7.653 17-17.094 17C8.185 34 .53 26.389.53 17S8.184 0 17.625 0z" />
        </clipPath>
    </defs>
    <g>
        <g>
            <path fill="none" stroke="#fff" stroke-miterlimit="50" stroke-width="4" d="M17.625 0c9.44 0 17.094 7.611 17.094 17s-7.653 17-17.094 17C8.185 34 .53 26.389.53 17S8.184 0 17.625 0z" clip-path="url(&quot;#pr1fa&quot;)" />
        </g>
        <g>
            <path fill="#fff" d="M13.812 16.507h1.459v8.668h3.238v-8.668h2.288l.621-2.798h-3.044s-.237-1.164.215-1.599c.232-.224.649-.394 1.184-.394.544 0 .98.29 1.53.607l.655-2.464c-1.009-.283-1.653-.63-2.706-.63-1.027 0-1.62.163-2.29.489-.671.326-.977.903-1.227 1.421-.25.519-.375 1.15-.375 2.203v.367h-1.503z" />
        </g>
    </g>
</svg>